<svg width="20" height="20" viewBox="0 0 20 20" fill="none" xmlns="http://www.w3.org/2000/svg">
<g clip-path="url(#clip0_1656_118)">
<path d="M21.2766 0.458252H-1.27661V19.5418H21.2766V0.458252Z" fill="black" style="fill:black;fill-opacity:1;"/>
<path d="M16.0388 4.1604V4.30151H6.19409C3.82837 4.30151 2.45874 5.66284 2.45874 8.00366V14.5613H2.09351C0.358639 14.5613 -0.512939 13.7063 -0.512939 11.9881V4.1604C-0.512939 2.45044 0.358639 1.58716 2.09351 1.58716H13.4324C15.1672 1.58716 16.0388 2.45044 16.0388 4.1604Z" fill="white" fill-opacity="0.85" style="fill:white;fill-opacity:0.85;"/>
<path d="M20.1394 8.00366V15.8313C20.1394 17.5413 19.2678 18.4046 17.533 18.4046H6.19409C4.45923 18.4046 3.58765 17.5496 3.58765 15.8313V8.00366C3.58765 6.2937 4.45923 5.43042 6.19409 5.43042H17.533C19.2678 5.43042 20.1394 6.2937 20.1394 8.00366ZM11.1497 8.67602V11.1912H8.63452C8.19458 11.1912 7.89575 11.4817 7.89575 11.9217C7.89575 12.3367 8.20288 12.6272 8.63452 12.6272H11.1497V15.1507C11.1497 15.574 11.4319 15.8812 11.8552 15.8812C12.2869 15.8812 12.5857 15.574 12.5857 15.1507V12.6272H15.1091C15.5325 12.6272 15.8396 12.3367 15.8396 11.9217C15.8396 11.4817 15.5325 11.1912 15.1091 11.1912H12.5857V8.67602C12.5857 8.23608 12.2869 7.93725 11.8552 7.93725C11.4319 7.93725 11.1497 8.24438 11.1497 8.67602Z" fill="white" fill-opacity="0.85" style="fill:white;fill-opacity:0.85;"/>
</g>
<defs>
<clipPath id="clip0_1656_118">
<rect width="20" height="20" fill="white" style="fill:white;fill-opacity:1;"/>
</clipPath>
</defs>
</svg>
