<svg xmlns="http://www.w3.org/2000/svg" viewBox="0 0 18.34 17.979"><g fill="currentColor"><path d="M3.066 17.979h11.846c2.05 0 3.066-1.006 3.066-3.018V3.027C17.979 1.016 16.964 0 14.913 0H3.066C1.026 0 0 1.016 0 3.027v11.934c0 2.012 1.025 3.018 3.066 3.018m.02-1.573c-.977 0-1.514-.517-1.514-1.533V3.115c0-1.015.537-1.543 1.514-1.543h11.807c.966 0 1.513.528 1.513 1.543v11.758c0 1.016-.547 1.533-1.513 1.533Z"/><path d="M13.213 8.975c.38 0 .693-.303.693-.684V4.893c0-.586-.303-.811-.81-.811h-3.38a.688.688 0 1 0 0 1.377h.48l1.494-.098-2.208 2.1a.737.737 0 0 0-.01 1.035.715.715 0 0 0 1.046-.01l2.109-2.216-.098 1.543v.478c0 .38.303.684.684.684M8.28 13.906c.381 0 .684-.312.684-.693a.68.68 0 0 0-.684-.684h-.478l-1.494.098 2.197-2.1a.737.737 0 0 0 .01-1.035.704.704 0 0 0-1.036.01l-2.109 2.217.098-1.543v-.479a.69.69 0 0 0-.694-.683.68.68 0 0 0-.683.683v3.399c0 .586.293.81.8.81Z"/></g></svg>