<svg width="20" height="20" viewBox="0 0 20 20" fill="none" xmlns="http://www.w3.org/2000/svg">
<path d="M18.28 10.0042C18.28 14.6775 14.4865 18.471 9.81324 18.471C5.1482 18.471 1.34644 14.6775 1.34644 10.0042C1.34644 5.33911 5.1482 1.53735 9.81324 1.53735C14.4865 1.53735 18.28 5.33911 18.28 10.0042ZM5.39722 13.8143C5.39722 14.1297 5.55494 14.3538 5.90357 14.3538H13.7229C14.0715 14.3538 14.2292 14.1297 14.2292 13.8143C14.2292 12.8846 12.8181 10.4524 9.81324 10.4524C6.80835 10.4524 5.39722 12.8846 5.39722 13.8143ZM7.61353 7.3396C7.61353 8.71753 8.60132 9.73852 9.81324 9.74682C11.0251 9.75512 12.0129 8.71753 12.0129 7.3396C12.0129 6.06128 11.0251 4.99878 9.81324 4.99878C8.60132 4.99878 7.61353 6.06128 7.61353 7.3396Z" fill="white" fill-opacity="0.85" style="fill:white;fill-opacity:0.85;"/>
</svg>
