<svg width="20" height="20" viewBox="0 0 20 20" fill="none" xmlns="http://www.w3.org/2000/svg">
<path d="M18.9607 5.74585V12.1043C18.9607 14.5364 17.6326 15.8977 15.159 15.8977H9.54761L6.55102 18.637C6.16089 19.0022 5.92016 19.1682 5.59643 19.1682C5.12329 19.1682 4.85766 18.8279 4.85766 18.3132V15.8977H4.46753C1.99389 15.8977 0.665771 14.5447 0.665771 12.1043V5.74585C0.665771 3.30542 1.99389 1.94409 4.46753 1.94409H15.159C17.6326 1.94409 18.9607 3.31372 18.9607 5.74585ZM5.40552 11.1331C5.13159 11.1331 4.90747 11.3572 4.90747 11.6394C4.90747 11.9133 5.13159 12.1292 5.40552 12.1292H11.075C11.3489 12.1292 11.5647 11.9133 11.5647 11.6394C11.5647 11.3572 11.3489 11.1331 11.075 11.1331H5.40552ZM5.40552 8.3523C5.13159 8.3523 4.90747 8.57642 4.90747 8.84204C4.90747 9.12427 5.13159 9.34839 5.40552 9.34839H14.1214C14.3953 9.34839 14.6111 9.12427 14.6111 8.84204C14.6111 8.57642 14.3953 8.3523 14.1214 8.3523H5.40552ZM5.40552 5.57154C5.13159 5.57154 4.90747 5.79566 4.90747 6.06128C4.90747 6.34351 5.13159 6.55933 5.40552 6.55933H14.1214C14.3953 6.55933 14.6111 6.34351 14.6111 6.06128C14.6111 5.79566 14.3953 5.57154 14.1214 5.57154H5.40552Z" fill="white" fill-opacity="0.85" style="fill:white;fill-opacity:0.85;"/>
</svg>
