<svg viewBox="0 0 20 20" fill="currentColor" xmlns="http://www.w3.org/2000/svg">
<path d="M16.0388 4.1604V4.30151H6.19409C3.82837 4.30151 2.45874 5.66284 2.45874 8.00366V14.5613H2.09351C0.358639 14.5613 -0.512939 13.7063 -0.512939 11.9881V4.1604C-0.512939 2.45044 0.358639 1.58716 2.09351 1.58716H13.4324C15.1672 1.58716 16.0388 2.45044 16.0388 4.1604Z"/>
<path d="M20.1394 8.00366V15.8313C20.1394 17.5413 19.2678 18.4046 17.533 18.4046H6.19409C4.45923 18.4046 3.58765 17.5496 3.58765 15.8313V8.00366C3.58765 6.2937 4.45923 5.43042 6.19409 5.43042H17.533C19.2678 5.43042 20.1394 6.2937 20.1394 8.00366ZM9.51439 8.91675V14.9183C9.51439 15.3084 9.92119 15.4578 10.2366 15.2669L15.2752 12.3035C15.574 12.1209 15.5657 11.7059 15.2669 11.5398L10.2366 8.56811C9.92119 8.3855 9.51439 8.52661 9.51439 8.91675Z"/>
</svg>
