<svg width="20" height="20" viewBox="0 0 20 20" fill="none" xmlns="http://www.w3.org/2000/svg">
<g clip-path="url(#clip0_1656_358)">
<path d="M1.97315 16.5535H17.6533C19.3799 16.5535 20.2598 15.6903 20.2598 13.9803V6.0032C20.2598 4.30154 19.3799 3.43826 17.6533 3.43826H1.97315C0.22998 3.43826 -0.633301 4.29324 -0.633301 6.0032V13.9803C-0.633301 15.6903 0.22998 16.5535 1.97315 16.5535ZM2.5127 8.00369C2.28027 8.00369 2.13916 7.85428 2.13916 7.62185V6.83328C2.13916 6.60086 2.28027 6.45144 2.5127 6.45144H3.30127C3.54199 6.45144 3.69141 6.60086 3.69141 6.83328V7.62185C3.69141 7.85428 3.54199 8.00369 3.30127 8.00369H2.5127ZM5.26856 8.00369C5.02783 8.00369 4.88672 7.85428 4.88672 7.62185V6.83328C4.88672 6.60086 5.02783 6.45144 5.26856 6.45144H6.05713C6.28955 6.45144 6.43897 6.60086 6.43897 6.83328V7.62185C6.43897 7.85428 6.28955 8.00369 6.05713 8.00369H5.26856ZM8.02441 8.00369C7.79199 8.00369 7.64258 7.85428 7.64258 7.62185V6.83328C7.64258 6.60086 7.79199 6.45144 8.02441 6.45144H8.80469C9.04541 6.45144 9.19482 6.60086 9.19482 6.83328V7.62185C9.19482 7.85428 9.04541 8.00369 8.80469 8.00369H8.02441ZM10.7803 8.00369C10.5479 8.00369 10.3984 7.85428 10.3984 7.62185V6.83328C10.3984 6.60086 10.5479 6.45144 10.7803 6.45144H11.5688C11.8013 6.45144 11.9507 6.60086 11.9507 6.83328V7.62185C11.9507 7.85428 11.8013 8.00369 11.5688 8.00369H10.7803ZM13.5361 8.00369C13.2954 8.00369 13.146 7.85428 13.146 7.62185V6.83328C13.146 6.60086 13.2954 6.45144 13.5361 6.45144H14.3247C14.5571 6.45144 14.6982 6.60086 14.6982 6.83328V7.62185C14.6982 7.85428 14.5571 8.00369 14.3247 8.00369H13.5361ZM16.292 8.00369C16.0513 8.00369 15.9019 7.85428 15.9019 7.62185V6.83328C15.9019 6.60086 16.0513 6.45144 16.292 6.45144H17.0723C17.313 6.45144 17.4541 6.60086 17.4541 6.83328V7.62185C17.4541 7.85428 17.313 8.00369 17.0723 8.00369H16.292ZM2.5127 10.7596C2.28027 10.7596 2.13916 10.6101 2.13916 10.3777V9.58914C2.13916 9.35672 2.28027 9.2073 2.5127 9.2073H3.30127C3.54199 9.2073 3.69141 9.35672 3.69141 9.58914V10.3777C3.69141 10.6101 3.54199 10.7596 3.30127 10.7596H2.5127ZM5.26856 10.7596C5.02783 10.7596 4.88672 10.6101 4.88672 10.3777V9.58914C4.88672 9.35672 5.02783 9.2073 5.26856 9.2073H6.05713C6.28955 9.2073 6.43897 9.35672 6.43897 9.58914V10.3777C6.43897 10.6101 6.28955 10.7596 6.05713 10.7596H5.26856ZM8.02441 10.7596C7.79199 10.7596 7.64258 10.6101 7.64258 10.3777V9.58914C7.64258 9.35672 7.79199 9.2073 8.02441 9.2073H8.80469C9.04541 9.2073 9.19482 9.35672 9.19482 9.58914V10.3777C9.19482 10.6101 9.04541 10.7596 8.80469 10.7596H8.02441ZM10.7803 10.7596C10.5479 10.7596 10.3984 10.6101 10.3984 10.3777V9.58914C10.3984 9.35672 10.5479 9.2073 10.7803 9.2073H11.5688C11.8013 9.2073 11.9507 9.35672 11.9507 9.58914V10.3777C11.9507 10.6101 11.8013 10.7596 11.5688 10.7596H10.7803ZM13.5361 10.7596C13.2954 10.7596 13.146 10.6101 13.146 10.3777V9.58914C13.146 9.35672 13.2954 9.2073 13.5361 9.2073H14.3247C14.5571 9.2073 14.6982 9.35672 14.6982 9.58914V10.3777C14.6982 10.6101 14.5571 10.7596 14.3247 10.7596H13.5361ZM16.292 10.7596C16.0513 10.7596 15.9019 10.6101 15.9019 10.3777V9.58914C15.9019 9.35672 16.0513 9.2073 16.292 9.2073H17.0723C17.313 9.2073 17.4541 9.35672 17.4541 9.58914V10.3777C17.4541 10.6101 17.313 10.7596 17.0723 10.7596H16.292ZM2.5127 13.5154C2.28027 13.5154 2.13916 13.366 2.13916 13.1336V12.345C2.13916 12.1126 2.28027 11.9632 2.5127 11.9632H3.30127C3.54199 11.9632 3.69141 12.1126 3.69141 12.345V13.1336C3.69141 13.366 3.54199 13.5154 3.30127 13.5154H2.5127ZM5.35986 13.5154C5.06104 13.5154 4.88672 13.3411 4.88672 13.0423V12.428C4.88672 12.1375 5.06104 11.9632 5.35986 11.9632H14.2334C14.5239 11.9632 14.6982 12.1375 14.6982 12.428V13.0423C14.6982 13.3411 14.5239 13.5154 14.2334 13.5154H5.35986ZM16.292 13.5154C16.0513 13.5154 15.9019 13.366 15.9019 13.1336V12.345C15.9019 12.1126 16.0513 11.9632 16.292 11.9632H17.0723C17.313 11.9632 17.4541 12.1126 17.4541 12.345V13.1336C17.4541 13.366 17.313 13.5154 17.0723 13.5154H16.292Z" fill="white"  style="fill:white;"/>
</g>
<defs>
<clipPath id="clip0_1656_358">
<rect width="20" height="20" fill="white" style="fill:white;fill-opacity:1;"/>
</clipPath>
</defs>
</svg>
