<svg viewBox="0 0 20 20" fill="currentColor" xmlns="http://www.w3.org/2000/svg">
<path d="M12.3491 4.45093C12.3491 5.31421 12.8472 5.80395 13.7105 5.80395H18.3008V13.6814C18.3008 15.408 17.4458 16.2879 15.7276 16.2879H15.4121V11.2659C15.4204 10.0706 15.0552 9.11596 14.2915 8.33569L9.85889 3.82007C9.01221 2.94848 8.09082 2.55835 6.7959 2.55835H5.35157V2.0852C5.35157 0.458252 6.21485 -0.454838 7.92481 -0.454838H12.3491V4.45093ZM14.1753 0.400142L17.6865 3.97778C17.9854 4.26831 18.1597 4.50073 18.2095 4.76636H13.8682C13.5362 4.76636 13.4033 4.62524 13.4033 4.28491L13.395 -0.114498C13.6524 -0.0812979 13.8931 0.101322 14.1753 0.400142Z"/>
<path d="M8.47266 10.1287H14.1338C14.0425 9.80496 13.8516 9.50606 13.4864 9.12426L9.05371 4.60864C8.68018 4.23511 8.36475 3.98608 8.04932 3.89477V9.70536C8.04932 9.98756 8.19043 10.1287 8.47266 10.1287ZM3.89893 20.43H11.7017C13.4199 20.43 14.2749 19.5501 14.2749 17.8235V11.2659H8.48096C7.41016 11.2659 6.91211 10.7596 6.91211 9.69706V3.68725H3.89893C2.18897 3.68725 1.32569 4.55884 1.32569 6.2937V17.8235C1.32569 19.5584 2.18897 20.43 3.89893 20.43Z"/>
</svg>
