<svg viewBox="0 0 20 20" fill="currentColor" xmlns="http://www.w3.org/2000/svg">
<path d="M19.5998 4.9324V15.076C19.5998 16.786 18.7366 17.6409 16.9934 17.6409H2.63306C0.898193 17.6409 0.0266113 16.786 0.0266113 15.076V4.9324C0.0266113 3.22244 0.898193 2.35916 2.63306 2.35916H16.9934C18.7366 2.35916 19.5998 3.22244 19.5998 4.9324ZM2.98999 13.9886C2.98999 14.4202 3.35522 14.7855 3.77856 14.7855C4.22681 14.7855 4.58374 14.4285 4.58374 13.9886C4.58374 13.5487 4.22681 13.1834 3.77856 13.1834C3.35522 13.1834 2.98999 13.557 2.98999 13.9886ZM6.36011 13.4573C6.05298 13.4573 5.82056 13.6898 5.82056 13.9886C5.82056 14.2874 6.06128 14.5281 6.36011 14.5281H11.7805C12.071 14.5281 12.3118 14.2874 12.3118 13.9886C12.3118 13.6898 12.0793 13.4573 11.7805 13.4573H6.36011ZM2.98999 11.241C2.98999 11.6892 3.34692 12.0379 3.77856 12.0379C4.22681 12.0379 4.58374 11.6892 4.58374 11.241C4.58374 10.8094 4.22681 10.4524 3.77856 10.4524C3.34692 10.4524 2.98999 10.8177 2.98999 11.241ZM6.36011 10.7181C6.05298 10.7181 5.82056 10.9505 5.82056 11.241C5.82056 11.5564 6.05298 11.7889 6.36011 11.7889H16.1467C16.4538 11.7889 16.6863 11.5564 16.6863 11.241C16.6863 10.9505 16.4538 10.7181 16.1467 10.7181H6.36011ZM2.98999 8.63455C2.98999 9.06619 3.35522 9.43143 3.77856 9.43143C4.22681 9.43143 4.58374 9.07449 4.58374 8.63455C4.58374 8.18631 4.22681 7.83768 3.77856 7.83768C3.35522 7.83768 2.98999 8.19461 2.98999 8.63455ZM6.36011 8.095C6.06128 8.095 5.82056 8.34402 5.82056 8.63455C5.82056 8.92508 6.06128 9.1658 6.36011 9.1658H11.7805C12.071 9.1658 12.3118 8.92508 12.3118 8.63455C12.3118 8.34402 12.071 8.095 11.7805 8.095H6.36011ZM2.98999 6.0198C2.98999 6.44314 3.35522 6.81668 3.77856 6.81668C4.22681 6.81668 4.58374 6.45145 4.58374 6.0198C4.58374 5.57156 4.22681 5.22293 3.77856 5.22293C3.35522 5.22293 2.98999 5.57986 2.98999 6.0198ZM6.36011 5.47195C6.06128 5.47195 5.82056 5.71268 5.82056 6.0198C5.82056 6.31033 6.05298 6.54275 6.36011 6.54275H16.1467C16.4538 6.54275 16.6863 6.31033 16.6863 6.0198C16.6863 5.71268 16.4455 5.47195 16.1467 5.47195H6.36011Z"/>
</svg>
