<svg viewBox="0 0 12.0527 14.1362" fill="currentColor" xmlns="http://www.w3.org/2000/svg">
  <path d="M2.75586 14.1279H8.92334C10.6914 14.1279 11.6792 13.1484 11.6792 11.3804V6.3418C11.6792 4.57373 10.6914 3.58594 8.92334 3.58594H2.75586C0.987793 3.58594 0 4.57373 0 6.3418V11.3804C0 13.1484 0.987793 14.1279 2.75586 14.1279ZM5.83545 0C6.15918 0 6.43311 0.265625 6.43311 0.572754V7.04736L6.3833 8.03516L6.71533 7.67822L7.62842 6.68213C7.73633 6.56592 7.88574 6.50781 8.03516 6.50781C8.34229 6.50781 8.57471 6.72363 8.57471 7.03076C8.57471 7.18848 8.5083 7.30469 8.40039 7.4209L6.26709 9.45459C6.11768 9.604 5.99316 9.65381 5.83545 9.65381C5.68604 9.65381 5.56152 9.604 5.41211 9.45459L3.27881 7.4209C3.1626 7.30469 3.10449 7.18848 3.10449 7.03076C3.10449 6.72363 3.32861 6.50781 3.63574 6.50781C3.78516 6.50781 3.94287 6.56592 4.04248 6.68213L4.96387 7.67822L5.2959 8.03516L5.24609 7.04736V0.572754C5.24609 0.265625 5.52002 0 5.83545 0Z"/>
</svg>
