<svg width="20" height="20" viewBox="0 0 20 20" fill="none" xmlns="http://www.w3.org/2000/svg">
<g clip-path="url(#clip0_1656_161)">
<path d="M17.1802 9.03293V15.4245C17.1802 17.6491 15.9351 18.8942 13.7022 18.8942H5.91602C3.68311 18.8942 2.44629 17.6491 2.44629 15.4245V9.03293C2.44629 6.80002 3.68311 5.5632 5.91602 5.5632H7.59277V6.89963H5.91602C4.55469 6.89963 3.78272 7.6716 3.78272 9.03293V15.4245C3.78272 16.7858 4.55469 17.5578 5.91602 17.5578H13.7022C15.0718 17.5578 15.8438 16.7858 15.8438 15.4245V9.03293C15.8438 7.6716 15.0718 6.89963 13.7022 6.89963H12.0337V5.5632H13.7022C15.9351 5.5632 17.1802 6.80002 17.1802 9.03293Z" fill="white" fill-opacity="0.85" style="fill:white;fill-opacity:0.85;"/>
<path d="M9.81738 1.14719C9.46045 1.14719 9.15332 1.43771 9.15332 1.78635V10.2282L9.25293 12.4694C9.26953 12.7765 9.51025 13.0256 9.81738 13.0256C10.1162 13.0256 10.3569 12.7765 10.3735 12.4694L10.4732 10.2282V1.78635C10.4732 1.43771 10.1743 1.14719 9.81738 1.14719ZM6.99512 9.41476C6.64649 9.41476 6.39746 9.65544 6.39746 9.99584C6.39746 10.1784 6.47217 10.3112 6.59668 10.4357L9.33594 13.0754C9.50195 13.2414 9.64307 13.2912 9.81738 13.2912C9.9834 13.2912 10.1245 13.2414 10.2905 13.0754L13.0298 10.4357C13.1543 10.3112 13.229 10.1784 13.229 9.99584C13.229 9.65544 12.9634 9.41476 12.6231 9.41476C12.457 9.41476 12.291 9.48117 12.1748 9.61394L10.8882 10.9836L9.81738 12.1208L8.73828 10.9836L7.45166 9.61394C7.33545 9.48117 7.16113 9.41476 6.99512 9.41476Z" fill="white" fill-opacity="0.85" style="fill:white;fill-opacity:0.85;"/>
</g>
<defs>
<clipPath id="clip0_1656_161">
<rect width="20" height="20" fill="white" style="fill:white;fill-opacity:1;"/>
</clipPath>
</defs>
</svg>
