<svg width="20" height="20" viewBox="0 0 20 20" fill="none" xmlns="http://www.w3.org/2000/svg">
<path d="M12.6645 18.6121H17.5122C17.894 18.6121 18.0933 18.4295 18.0933 18.1224C18.0933 17.807 17.894 17.6409 17.5122 17.6409H15.6528V2.29276H17.5122C17.894 2.29276 18.0933 2.11844 18.0933 1.80301C18.0933 1.49588 17.894 1.32986 17.5122 1.32986H12.6645C12.291 1.32986 12.0918 1.49588 12.0918 1.80301C12.0918 2.11844 12.291 2.29276 12.6645 2.29276H14.5322V17.6409H12.6645C12.291 17.6409 12.0918 17.807 12.0918 18.1224C12.0918 18.4295 12.291 18.6121 12.6645 18.6121Z" fill="white" fill-opacity="0.85" style="fill:white;fill-opacity:0.85;"/>
<path d="M2.23047 16.0887C2.67041 16.0887 2.88623 15.9227 3.04394 15.4661L4.11474 12.5277H9.0122L10.083 15.4661C10.2407 15.9227 10.4565 16.0887 10.8882 16.0887C11.3281 16.0887 11.6103 15.8231 11.6103 15.408C11.6103 15.2669 11.5854 15.1424 11.519 14.9598L7.62597 4.60037C7.43506 4.08572 7.09472 3.8367 6.56347 3.8367C6.04882 3.8367 5.70019 4.07742 5.51758 4.59207L1.62451 14.9681C1.5498 15.1507 1.5332 15.2752 1.5332 15.4163C1.5332 15.8314 1.79883 16.0887 2.23047 16.0887ZM4.53808 11.2576L6.55517 5.67117H6.59668L8.61377 11.2576H4.53808Z" fill="white" fill-opacity="0.85" style="fill:white;fill-opacity:0.85;"/>
</svg>
