<svg width="20" height="20" viewBox="0 0 20 20" fill="none" xmlns="http://www.w3.org/2000/svg">
<path d="M15.9807 11.5647C16.8523 11.5647 17.5579 10.8674 17.5579 9.99585C17.5579 9.12427 16.8523 8.4187 15.9807 8.4187C15.1091 8.4187 14.4036 9.12427 14.4036 9.99585C14.4036 10.8674 15.1091 11.5647 15.9807 11.5647Z" fill="white" fill-opacity="0.85" style="fill:white;fill-opacity:0.85;"/>
<path d="M9.81323 11.5647C10.6848 11.5647 11.3821 10.8674 11.3821 9.99585C11.3821 9.12427 10.6848 8.4187 9.81323 8.4187C8.94165 8.4187 8.23608 9.12427 8.23608 9.99585C8.23608 10.8674 8.94165 11.5647 9.81323 11.5647Z" fill="white" fill-opacity="0.85" style="fill:white;fill-opacity:0.85;"/>
<path d="M3.64575 11.5647C4.51733 11.5647 5.2146 10.8674 5.2146 9.99585C5.2146 9.12427 4.51733 8.4187 3.64575 8.4187C2.77417 8.4187 2.0686 9.12427 2.0686 9.99585C2.0686 10.8674 2.77417 11.5647 3.64575 11.5647Z" fill="white" fill-opacity="0.85" style="fill:white;fill-opacity:0.85;"/>
</svg>
