<svg width="20" height="20" viewBox="0 0 20 20" fill="none" xmlns="http://www.w3.org/2000/svg">
<g clip-path="url(#clip0_1656_331)">
<path d="M20.0979 1.26346H-0.0979004V18.7366H20.0979V1.26346Z" fill="black" style="fill:black;fill-opacity:1;"/>
<path d="M7.57202 17.3836V12.5028C7.57202 12.1209 7.82935 11.8719 8.21118 11.8719H11.4236C11.8137 11.8719 12.0544 12.1209 12.0544 12.5028V17.3836H7.57202ZM2.49194 16.8939C2.49194 18.0477 3.18921 18.72 4.35962 18.72H15.2751C16.4456 18.72 17.1345 18.0477 17.1345 16.8939V10.303L10.3113 4.58377C9.9959 4.31815 9.62231 4.32645 9.31519 4.58377L2.49194 10.303V16.8939ZM0.615967 10.1287C0.848389 10.1287 1.03931 10.0042 1.21362 9.86307L9.52271 2.88211C9.61401 2.80741 9.72192 2.7659 9.81323 2.7659C9.9128 2.7659 10.0125 2.80741 10.1038 2.88211L18.4211 9.86307C18.5872 10.0042 18.7781 10.1287 19.0105 10.1287C19.4587 10.1287 19.7244 9.80496 19.7244 9.46463C19.7244 9.27371 19.6497 9.0745 19.4587 8.92508L10.8093 1.6619C10.4939 1.39627 10.1536 1.26346 9.81323 1.26346C9.4729 1.26346 9.13257 1.39627 8.81714 1.6619L0.167725 8.92508C-0.0148926 9.0745 -0.0979004 9.27371 -0.0979004 9.46463C-0.0979004 9.80496 0.167725 10.1287 0.615967 10.1287ZM15.217 5.72098L17.3005 7.48075V3.73709C17.3005 3.37186 17.0681 3.13944 16.7029 3.13944H15.8147C15.4578 3.13944 15.217 3.37186 15.217 3.73709V5.72098Z" fill="white"  style="fill:white;"/>
</g>
<defs>
<clipPath id="clip0_1656_331">
<rect width="20" height="20" fill="white" style="fill:white;fill-opacity:1;"/>
</clipPath>
</defs>
</svg>
