<svg width="20" height="20" viewBox="0 0 20 20" fill="none" xmlns="http://www.w3.org/2000/svg">
<path d="M18.28 9.99585C18.28 14.6609 14.4865 18.4627 9.81324 18.4627C5.1482 18.4627 1.34644 14.6609 1.34644 9.99585C1.34644 5.32251 5.1482 1.52905 9.81324 1.52905C14.4865 1.52905 18.28 5.32251 18.28 9.99585ZM8.46021 8.4602C8.11158 8.4602 7.83765 8.73413 7.83765 9.06616C7.83765 9.42309 8.11158 9.68042 8.46021 9.68042H9.3733V13.5818H8.3191C7.96216 13.5818 7.68824 13.8558 7.68824 14.1878C7.68824 14.5447 7.96216 14.802 8.3191 14.802H11.7971C12.154 14.802 12.4279 14.5447 12.4279 14.1878C12.4279 13.8558 12.154 13.5818 11.7971 13.5818H10.7429V9.24048C10.7429 8.77563 10.5105 8.4602 10.0706 8.4602H8.46021ZM8.61792 5.92016C8.61792 6.55102 9.11597 7.04907 9.73853 7.04907C10.3611 7.04907 10.8508 6.55102 10.8508 5.92016C10.8508 5.2893 10.3611 4.79126 9.73853 4.79126C9.11597 4.79126 8.61792 5.2893 8.61792 5.92016Z" fill="white"  style="fill:white;"/>
</svg>
