<svg xmlns="http://www.w3.org/2000/svg" viewBox="0 0 20.039 14.268"><g fill="currentColor"><path d="M5.547 13.828h13.33c.44 0 .8-.342.8-.79a.79.79 0 0 0-.8-.782H5.547a.774.774 0 0 0-.791.781c0 .45.342.791.79.791M1.23 14.268a1.225 1.225 0 1 0 0-2.452 1.225 1.225 0 1 0 0 2.451M5.547 7.92h13.33c.44 0 .8-.342.8-.781a.796.796 0 0 0-.8-.791H5.547a.78.78 0 0 0-.791.79c0 .44.342.782.79.782M1.23 8.37c.684 0 1.23-.548 1.23-1.231 0-.684-.546-1.23-1.23-1.23S0 6.454 0 7.138s.547 1.23 1.23 1.23M5.547 2.021h13.33c.44 0 .8-.341.8-.79a.79.79 0 0 0-.8-.782H5.547a.774.774 0 0 0-.791.781c0 .45.342.791.79.791M1.23 2.46c.684 0 1.23-.546 1.23-1.23a1.232 1.232 0 1 0-1.23 1.23"/></g></svg>