<svg width="20" height="20" viewBox="0 0 20 20" fill="none" xmlns="http://www.w3.org/2000/svg">
<path d="M3.35829 14.5C2.61631 14.5 2.03676 14.2863 1.61965 13.8589C1.20655 13.4274 1 12.8278 1 12.0602V7.93983C1 7.1722 1.20655 6.57469 1.61965 6.1473C2.03676 5.71577 2.61631 5.5 3.35829 5.5H16.6417C17.3877 5.5 17.9672 5.71577 18.3803 6.1473C18.7934 6.57469 19 7.1722 19 7.93983V12.0602C19 12.8278 18.7934 13.4274 18.3803 13.8589C17.9672 14.2863 17.3877 14.5 16.6417 14.5H3.35829ZM4.98864 10.1183C4.98864 9.95643 4.93249 9.8195 4.82019 9.70747C4.7119 9.59544 4.57955 9.53942 4.42313 9.53942C4.26671 9.53942 4.13235 9.59544 4.02005 9.70747C3.91176 9.8195 3.85762 9.95643 3.85762 10.1183V11.0892C3.85762 11.2552 3.91176 11.3942 4.02005 11.5062C4.13235 11.6183 4.26671 11.6743 4.42313 11.6743C4.57955 11.6743 4.7119 11.6183 4.82019 11.5062C4.93249 11.3942 4.98864 11.2552 4.98864 11.0892V10.1183ZM6.8115 10.1183C6.8115 9.95643 6.75535 9.8195 6.64305 9.70747C6.53476 9.59544 6.40241 9.53942 6.24599 9.53942C6.08556 9.53942 5.9492 9.59544 5.8369 9.70747C5.72861 9.8195 5.67447 9.95643 5.67447 10.1183V11.0892C5.67447 11.2552 5.72861 11.3942 5.8369 11.5062C5.9492 11.6183 6.08556 11.6743 6.24599 11.6743C6.40241 11.6743 6.53476 11.6183 6.64305 11.5062C6.75535 11.3942 6.8115 11.2552 6.8115 11.0892V10.1183ZM13.1885 11.2697C13.369 11.2697 13.5234 11.2054 13.6517 11.0768C13.7801 10.944 13.8443 10.7863 13.8443 10.6037C13.8443 10.417 13.7801 10.2573 13.6517 10.1245C13.5234 9.9917 13.369 9.92531 13.1885 9.92531C13.012 9.92531 12.8596 9.9917 12.7313 10.1245C12.607 10.2573 12.5448 10.417 12.5448 10.6037C12.5448 10.7863 12.607 10.944 12.7313 11.0768C12.8596 11.2054 13.012 11.2697 13.1885 11.2697ZM15.2941 11.4876C15.5307 11.4876 15.7313 11.4025 15.8957 11.2324C16.0642 11.0581 16.1484 10.8485 16.1484 10.6037C16.1484 10.3589 16.0642 10.1494 15.8957 9.9751C15.7313 9.80083 15.5307 9.71369 15.2941 9.71369C15.0575 9.71369 14.857 9.80083 14.6925 9.9751C14.5281 10.1494 14.4459 10.3589 14.4459 10.6037C14.4459 10.8485 14.5281 11.0581 14.6925 11.2324C14.857 11.4025 15.0575 11.4876 15.2941 11.4876Z" fill="white" style="fill:white;fill-opacity:1;"/>
</svg>
