<?xml version="1.0" encoding="UTF-8"?>
<svg version="1.1" xmlns="http://www.w3.org/2000/svg" xmlns:xlink="http://www.w3.org/1999/xlink" viewBox="0 0 15.6372 6.3501">
 <g>
  <rect height="6.3501" opacity="0" width="15.6372" x="0" y="0"/>
  <path d="M1.86768 6.34277L13.3374 6.34277C14.5825 6.34277 15.1978 5.72754 15.1978 4.50439L15.1978 1.83838C15.1978 0.615234 14.5825 0 13.3374 0L1.86768 0C0.615234 0 0 0.615234 0 1.83838L0 4.50439C0 5.72754 0.615234 6.34277 1.86768 6.34277ZM2.93701 3.36914L2.93701 4.21875C2.93701 4.42383 2.76855 4.58496 2.56348 4.58496C2.35107 4.58496 2.19727 4.42383 2.19727 4.21875L2.19727 3.36914C2.19727 3.15674 2.35107 2.99561 2.56348 2.99561C2.76855 2.99561 2.93701 3.15674 2.93701 3.36914ZM4.59229 3.36914L4.59229 4.21875C4.59229 4.42383 4.43115 4.58496 4.21875 4.58496C4.01367 4.58496 3.85254 4.42383 3.85254 4.21875L3.85254 3.36914C3.85254 3.15674 4.01367 2.99561 4.21875 2.99561C4.43115 2.99561 4.59229 3.15674 4.59229 3.36914ZM10.5908 4.2334C10.3418 4.2334 10.1367 4.03564 10.1367 3.78662C10.1367 3.5376 10.3418 3.33984 10.5908 3.33984C10.8398 3.33984 11.0449 3.5376 11.0449 3.78662C11.0449 4.03564 10.8398 4.2334 10.5908 4.2334ZM12.3999 4.38721C12.0776 4.38721 11.7993 4.12354 11.7993 3.78662C11.7993 3.44971 12.0776 3.18604 12.3999 3.18604C12.7368 3.18604 13.0078 3.44971 13.0078 3.78662C13.0078 4.12354 12.7368 4.38721 12.3999 4.38721Z" fill="currentColor"/>
 </g>
</svg>
