<svg width="20" height="20" viewBox="0 0 20 20" fill="none" xmlns="http://www.w3.org/2000/svg">
<path d="M18.114 3.0813H1.88599V16.9187H18.114V3.0813Z" fill="black" style="fill:black;fill-opacity:1;"/>
<path d="M10.1951 5.96997L15.6072 10.5022V15.408C15.6072 16.3542 15.0344 16.9104 14.0715 16.9104H5.55494C4.59204 16.9104 4.01929 16.3542 4.01929 15.408V10.5022L9.4314 5.96997C9.65552 5.77905 9.96265 5.77075 10.1951 5.96997ZM8.12818 9.92944V14.5696C8.12818 14.885 8.47681 15.0095 8.72583 14.8518L12.6189 12.5608C12.8679 12.4114 12.8596 12.0793 12.6106 11.9382L8.72583 9.64722C8.47681 9.4895 8.12818 9.60571 8.12818 9.92944ZM10.6433 3.40503L13.9719 6.19833V5.00708C13.9719 4.69165 14.1878 4.49243 14.4949 4.49243H15.242C15.5574 4.49243 15.7649 4.69165 15.7649 5.00708V7.70295L17.5081 9.16577C17.6658 9.29859 17.7405 9.4812 17.7405 9.64722C17.7405 9.95435 17.4998 10.2449 17.093 10.2449C16.8855 10.2449 16.7112 10.1287 16.5618 10.0041L10.0208 4.51734C9.95435 4.45923 9.87964 4.43433 9.81324 4.43433C9.74683 4.43433 9.66382 4.45923 9.59742 4.51734L3.0647 10.0041C2.91529 10.1287 2.74097 10.2449 2.53345 10.2449C2.12671 10.2449 1.88599 9.95435 1.88599 9.64722C1.88599 9.4812 1.96069 9.29859 2.11841 9.16577L8.98316 3.40503C9.24048 3.18921 9.53101 3.0813 9.81324 3.0813C10.0955 3.0813 10.3777 3.18921 10.6433 3.40503Z" fill="white" style="fill:white;fill-opacity:1;"/>
</svg>
