<svg viewBox="0 0 20 20" fill="currentColor" xmlns="http://www.w3.org/2000/svg">
<path d="M18.2593 1.31324L18.4751 2.12672C18.6992 2.9983 18.2842 3.75367 17.3711 3.9944L8.25683 6.43483H17.9688C18.9067 6.43483 19.5044 7.03248 19.5044 7.95387V15.6985C19.5044 17.3255 18.6826 18.1555 17.0142 18.1555H3.36767C1.70751 18.1555 0.869136 17.3338 0.869136 15.6985V8.42701L0.246577 6.1443C-0.168462 4.57545 0.437495 3.55445 2.02294 3.12281L15.2046 -0.421616C16.7983 -0.844956 17.8525 -0.272202 18.2593 1.31324ZM6.23144 7.72975L4.06494 7.82936L2.87792 10.0374H5.60888L6.854 7.72975H6.23144ZM9.38574 7.72975L8.14892 10.0374H11.0791L12.3242 7.72975H9.38574ZM14.856 7.72975L13.6191 10.0374H16.3418L17.5869 7.72975H14.856ZM3.10205 4.17701L2.47949 6.72535L5.12744 6.01149L5.72509 3.46315L3.10205 4.17701ZM8.18212 2.80738L7.58447 5.35572L10.415 4.60865L11.0127 2.05201L8.18212 2.80738ZM15.4619 0.848403L13.4614 1.39625L12.8555 3.94459L15.4951 3.23903L16.0845 0.707293C15.8853 0.748793 15.6777 0.790293 15.4619 0.848403Z"/>
</svg>
