<svg width="20" height="20" viewBox="0 0 20 20" fill="none" xmlns="http://www.w3.org/2000/svg">
<path d="M19.9734 2.35916H0.0266113V17.6409H19.9734V2.35916Z" fill="black" style="fill:black;fill-opacity:1;"/>
<path d="M2.57495 17.0599H16.487C17.9895 17.0599 18.7449 16.2215 18.7449 14.6278L13.8142 9.99588C13.449 9.65555 13.009 9.48123 12.5608 9.48123C12.1042 9.48123 11.6975 9.63895 11.3157 9.97928L7.56372 13.3328L6.02807 11.9466C5.67944 11.6311 5.29761 11.4734 4.90747 11.4734C4.53393 11.4734 4.177 11.6228 3.83667 11.9383L0.674072 14.7938C0.723877 16.2962 1.33813 17.0599 2.57495 17.0599ZM2.63306 17.6409H16.9934C18.7366 17.6409 19.5998 16.786 19.5998 15.076V4.9324C19.5998 3.22244 18.7366 2.35916 16.9934 2.35916H2.63306C0.898193 2.35916 0.0266113 3.22244 0.0266113 4.9324V15.076C0.0266113 16.786 0.898193 17.6409 2.63306 17.6409ZM2.64966 16.3045C1.81958 16.3045 1.36304 15.8646 1.36304 15.0013V5.00711C1.36304 4.14383 1.81958 3.69559 2.64966 3.69559H16.9768C17.7986 3.69559 18.2634 4.14383 18.2634 5.00711V15.0013C18.2634 15.8646 17.7986 16.3045 16.9768 16.3045H2.64966Z" fill="white" fill-opacity="0.85" style="fill:white;fill-opacity:0.85;"/>
<path d="M6.21069 10.0789C7.28149 10.0789 8.16138 9.199 8.16138 8.1199C8.16138 7.0491 7.28149 6.16092 6.21069 6.16092C5.13159 6.16092 4.25171 7.0491 4.25171 8.1199C4.25171 9.199 5.13159 10.0789 6.21069 10.0789Z" fill="white" fill-opacity="0.85" style="fill:white;fill-opacity:0.85;"/>
</svg>
