<svg xmlns="http://www.w3.org/2000/svg" viewBox="0 0 25.664 20.479"><g fill="currentColor"><path d="M20.371 3.047v5.049H18.8V3.135c0-1.016-.547-1.543-1.514-1.543h-14.2c-.976 0-1.513.527-1.513 1.543v9.707c0 1.015.557 1.543 1.514 1.543H9.58v1.572H3.066C1.016 15.957 0 14.941 0 12.93V3.047C0 1.035 1.016.02 3.066.02h14.249c2.04 0 3.056 1.015 3.056 3.027"/><path d="M12.647 20.479h9.6c2.03 0 3.056-1.016 3.056-3.028v-6.328c0-2.012-1.026-3.027-3.057-3.027h-9.6c-2.04 0-3.066 1.006-3.066 3.027v6.328c0 2.012 1.025 3.028 3.066 3.028m.019-1.573c-.976 0-1.514-.527-1.514-1.543v-6.162c0-1.016.538-1.533 1.514-1.533h9.55c.968 0 1.514.518 1.514 1.533v6.162c0 1.016-.546 1.543-1.513 1.543Z"/></g></svg>