<svg viewBox="0 0 20 20" fill="currentColor" xmlns="http://www.w3.org/2000/svg">
<path d="M3.6167 8.11154C5.09424 8.11154 6.28955 6.91623 6.28955 5.43039C6.28955 3.96115 5.09424 2.75754 3.6167 2.75754C2.13916 2.75754 0.943848 3.96115 0.943848 5.43039C0.943848 6.91623 2.13916 8.11154 3.6167 8.11154ZM16.0014 8.11154C17.4873 8.11154 18.6826 6.91623 18.6826 5.43039C18.6826 3.96115 17.4873 2.75754 16.0014 2.75754C14.5322 2.75754 13.3286 3.96115 13.3286 5.43039C13.3286 6.91623 14.5322 8.11154 16.0014 8.11154ZM9.81739 17.2341C11.2949 17.2341 12.4902 16.0304 12.4902 14.5529C12.4902 13.0754 11.2949 11.8801 9.81739 11.8801C8.33985 11.8801 7.14453 13.0754 7.14453 14.5529C7.14453 16.0304 8.33985 17.2341 9.81739 17.2341Z"/>
<path d="M7.69239 6.16085C8.08252 6.16085 8.40625 5.83712 8.40625 5.44698C8.40625 5.05685 8.08252 4.73312 7.69239 4.73312C7.30225 4.73312 6.97852 5.05685 6.97852 5.44698C6.97852 5.83712 7.30225 6.16085 7.69239 6.16085ZM9.81739 6.16085C10.2075 6.16085 10.5313 5.83712 10.5313 5.44698C10.5313 5.05685 10.2075 4.73312 9.81739 4.73312C9.41895 4.73312 9.10352 5.05685 9.10352 5.44698C9.10352 5.83712 9.41895 6.16085 9.81739 6.16085ZM11.9258 6.16085C12.3243 6.16085 12.648 5.83712 12.648 5.44698C12.648 5.05685 12.3243 4.73312 11.9258 4.73312C11.5357 4.73312 11.212 5.05685 11.212 5.44698C11.212 5.83712 11.5357 6.16085 11.9258 6.16085ZM13.8765 9.9211C14.2667 9.9211 14.5904 9.59737 14.5904 9.20724C14.5904 8.8171 14.2667 8.49337 13.8765 8.49337C13.4864 8.49337 13.1627 8.8171 13.1627 9.20724C13.1627 9.59737 13.4864 9.9211 13.8765 9.9211ZM12.3326 11.6228C12.7227 11.6228 13.0464 11.299 13.0464 10.9089C13.0464 10.5188 12.7227 10.195 12.3326 10.195C11.9424 10.195 11.6187 10.5188 11.6187 10.9089C11.6187 11.299 11.9424 11.6228 12.3326 11.6228ZM7.28565 11.6228C7.68408 11.6228 8.00781 11.299 8.00781 10.9089C8.00781 10.5188 7.68408 10.195 7.28565 10.195C6.89551 10.195 6.57178 10.5188 6.57178 10.9089C6.57178 11.299 6.89551 11.6228 7.28565 11.6228ZM5.7417 9.9211C6.13184 9.9211 6.45557 9.59737 6.45557 9.20724C6.45557 8.8171 6.13184 8.49337 5.7417 8.49337C5.35156 8.49337 5.02783 8.8171 5.02783 9.20724C5.02783 9.59737 5.35156 9.9211 5.7417 9.9211Z"/>
</svg>
