<svg viewBox="0 0 20 20" fill="currentColor" xmlns="http://www.w3.org/2000/svg">
<path d="M9.81323 17.9397C13.864 17.9397 17.1428 14.6609 17.1428 10.6018C17.1428 10.2366 16.844 9.93771 16.4787 9.93771C16.1135 9.93771 15.8064 10.2366 15.8064 10.6018C15.8064 13.9138 13.1252 16.595 9.81323 16.595C6.50122 16.595 3.82007 13.9138 3.82007 10.6018C3.82007 7.28977 6.50122 4.60861 9.81323 4.60861C10.552 4.60861 11.2576 4.74143 11.9133 4.98215C12.3367 5.14816 12.8347 4.90744 12.843 4.39279C12.8513 3.96945 12.5358 3.81174 12.3118 3.72873C11.5481 3.4382 10.7014 3.28049 9.81323 3.28049C5.76245 3.28049 2.48364 6.5593 2.48364 10.6101C2.48364 14.6609 5.76245 17.9397 9.81323 17.9397ZM12.0627 4.27658L9.04956 7.27316C8.90844 7.39768 8.85864 7.56369 8.85864 7.73801C8.85864 8.11984 9.14087 8.41037 9.5061 8.41037C9.71362 8.41037 9.86303 8.33566 9.98755 8.21945L13.4074 4.78293C13.5568 4.63352 13.6232 4.4675 13.6232 4.28488C13.6232 4.10227 13.5485 3.91965 13.4074 3.78684L9.99585 0.317109C9.86303 0.192596 9.71362 0.109589 9.5061 0.109589C9.14087 0.109589 8.85864 0.416718 8.85864 0.790253C8.85864 0.964569 8.90844 1.14719 9.04126 1.2717L12.0627 4.27658Z"/>
</svg>
