<svg width="20" height="20" viewBox="0 0 20 20" fill="none" xmlns="http://www.w3.org/2000/svg">
<path d="M1.70337 8.43533C1.70337 12.0877 4.67505 15.0593 8.32739 15.0593C9.77173 15.0593 11.0915 14.5945 12.179 13.8142L16.263 17.9065C16.4539 18.0974 16.7029 18.1887 16.9685 18.1887C17.533 18.1887 17.9231 17.7654 17.9231 17.2092C17.9231 16.9436 17.8235 16.7029 17.6492 16.5286L13.5901 12.4446C14.4451 11.3323 14.9514 9.94608 14.9514 8.43533C14.9514 4.78299 11.9798 1.81131 8.32739 1.81131C4.67505 1.81131 1.70337 4.78299 1.70337 8.43533ZM3.1228 8.43533C3.1228 5.56326 5.45532 3.23074 8.32739 3.23074C11.1995 3.23074 13.532 5.56326 13.532 8.43533C13.532 11.3074 11.1995 13.6399 8.32739 13.6399C5.45532 13.6399 3.1228 11.3074 3.1228 8.43533Z" fill="white" fill-opacity="0.85" style="fill:white;fill-opacity:0.85;"/>
</svg>
