<svg width="20" height="20" viewBox="0 0 20 20" fill="none" xmlns="http://www.w3.org/2000/svg">
<path d="M9.04956 18.6702H10.5769C11.0085 18.6702 11.3157 18.4129 11.4153 17.9896L11.8469 16.1634C12.1706 16.0555 12.4861 15.931 12.76 15.7982L14.362 16.7777C14.719 17.0018 15.1257 16.9686 15.4245 16.6697L16.4953 15.6072C16.7942 15.3084 16.8357 14.8768 16.595 14.5198L15.6155 12.9344C15.7566 12.6439 15.8811 12.345 15.9724 12.0462L17.8152 11.6063C18.2385 11.5067 18.4875 11.1995 18.4875 10.7679V9.26541C18.4875 8.84207 18.2385 8.53494 17.8152 8.43533L15.989 7.99539C15.8811 7.65506 15.7483 7.34793 15.6321 7.0906L16.6116 5.48025C16.8357 5.11502 16.8191 4.72488 16.5119 4.41775L15.4245 3.34695C15.1174 3.06472 14.7439 2.99832 14.3869 3.22244L12.76 4.22683C12.4944 4.08572 12.1872 3.96121 11.8469 3.8533L11.4153 2.00223C11.3157 1.57889 11.0085 1.32156 10.5769 1.32156H9.04956C8.61792 1.32156 8.3108 1.57889 8.20288 2.00223L7.77124 3.8367C7.44751 3.94461 7.13208 4.06912 6.84986 4.21853L5.23951 3.22244C4.88257 2.99832 4.49244 3.04812 4.19361 3.34695L3.11451 4.41775C2.80738 4.72488 2.78247 5.11502 3.0149 5.48025L3.98609 7.0906C3.87818 7.34793 3.74537 7.65506 3.63746 7.99539L1.81128 8.43533C1.38794 8.53494 1.13892 8.84207 1.13892 9.26541V10.7679C1.13892 11.1995 1.38794 11.5067 1.81128 11.6063L3.65406 12.0462C3.74537 12.345 3.86988 12.6439 4.00269 12.9344L3.0315 14.5198C2.78247 14.8768 2.83228 15.3084 3.13111 15.6072L4.19361 16.6697C4.49244 16.9686 4.90747 17.0018 5.26441 16.7777L6.85816 15.7982C7.14038 15.931 7.44751 16.0555 7.77124 16.1634L8.20288 17.9896C8.3108 18.4129 8.61792 18.6702 9.04956 18.6702ZM9.81324 12.9261C8.19458 12.9261 6.88306 11.6146 6.88306 9.99588C6.88306 8.37722 8.19458 7.0657 9.81324 7.0657C11.4319 7.0657 12.7434 8.37722 12.7434 9.99588C12.7434 11.6146 11.4319 12.9261 9.81324 12.9261Z" fill="white" fill-opacity="0.85" style="fill:white;fill-opacity:0.85;"/>
</svg>
