<svg viewBox="0 0 15.7051 12.061" fill="currentColor" xmlns="http://www.w3.org/2000/svg">
  <path d="M11.8535 0.473145V4.65674C11.8535 4.94727 12.0278 5.11328 12.3184 5.11328C12.4429 5.11328 12.584 5.06348 12.6753 4.98047L15.1655 2.88867C15.3813 2.71436 15.3813 2.44873 15.1655 2.24951L12.6753 0.149414C12.584 0.074707 12.4429 0.0249023 12.3184 0.0249023C12.0278 0.0249023 11.8535 0.182617 11.8535 0.473145ZM0 9.41309C0 9.77832 0.273926 10.019 0.672363 10.019H2.1665C3.27881 10.019 3.91797 9.70361 4.72314 8.77393L8.75732 4.08398C9.30518 3.45312 9.77002 3.2207 10.4922 3.2207H12.8164C13.1484 3.2207 13.4224 2.94678 13.4224 2.61475C13.4224 2.28271 13.1484 2.00879 12.8164 2.00879H10.4341C9.32178 2.00879 8.67432 2.32422 7.86914 3.25391L3.84326 7.94385C3.28711 8.57471 2.84717 8.81543 2.19141 8.81543H0.672363C0.273926 8.81543 0 9.05615 0 9.41309ZM11.8535 11.6128C11.8535 11.9033 12.0278 12.061 12.3184 12.061C12.4429 12.061 12.584 12.0112 12.6753 11.9282L15.1655 9.83643C15.3813 9.63721 15.3813 9.37158 15.1655 9.19727L12.6753 7.10547C12.584 7.02246 12.4429 6.97266 12.3184 6.97266C12.0278 6.97266 11.8535 7.13037 11.8535 7.4209ZM0 2.67285C0 3.02979 0.273926 3.27051 0.672363 3.27051H2.19141C2.84717 3.27051 3.28711 3.50293 3.84326 4.14209L7.86914 8.83203C8.67432 9.76172 9.32178 10.0771 10.4341 10.0771H12.8164C13.1484 10.0771 13.4224 9.80322 13.4224 9.47119C13.4224 9.13916 13.1484 8.86523 12.8164 8.86523H10.4922C9.77002 8.86523 9.30518 8.63281 8.75732 7.99365L4.72314 3.31201C3.91797 2.38232 3.27881 2.06689 2.1665 2.06689H0.672363C0.273926 2.06689 0 2.30762 0 2.67285Z"/>
</svg>
