<svg width="20" height="20" viewBox="0 0 20 20" fill="none" xmlns="http://www.w3.org/2000/svg">
<g clip-path="url(#clip0_1656_310)">
<path d="M15.1464 3.36349V7.77121H13.81V3.57931C13.81 2.91525 13.4199 2.54172 12.7226 2.54172H6.91211C6.20654 2.54172 5.81641 2.91525 5.81641 3.57931V16.404C5.81641 17.0681 6.20654 17.4416 6.91211 17.4416H12.7226C13.4199 17.4416 13.81 17.0681 13.81 16.404V12.2038H15.1464V16.6199C15.1464 17.9148 14.2417 18.7781 12.8886 18.7781H6.73779C5.38477 18.7781 4.47998 17.9148 4.47998 16.6199V3.36349C4.47998 2.06857 5.38477 1.20529 6.73779 1.20529H12.8886C14.2417 1.20529 15.1464 2.06857 15.1464 3.36349Z" fill="white" fill-opacity="0.85" style="fill:white;fill-opacity:0.85;"/>
<path d="M16.3169 7.17355C16.3169 7.33127 16.3833 7.51388 16.5161 7.63009L17.8857 8.90841L19.0312 9.98752L17.8857 11.0583L16.5161 12.3449C16.3833 12.4612 16.3169 12.6355 16.3169 12.7932C16.3169 13.1335 16.5659 13.3991 16.9062 13.3991C17.0805 13.3991 17.2133 13.3244 17.3379 13.1999L19.9775 10.469C20.1435 10.3029 20.2016 10.1535 20.2016 9.98752C20.2016 9.8132 20.1435 9.67209 19.9775 9.50607L17.3379 6.76681C17.2133 6.6423 17.0805 6.5759 16.9062 6.5759C16.5659 6.5759 16.3169 6.82492 16.3169 7.17355ZM9.83392 9.98752C9.83392 10.3444 10.1328 10.6433 10.4814 10.6433H17.1386L19.3715 10.5437C19.6787 10.5271 19.9277 10.2946 19.9277 9.98752C19.9277 9.68039 19.6787 9.44797 19.3715 9.43136L17.1386 9.32345H10.4814C10.1328 9.32345 9.83392 9.63058 9.83392 9.98752Z" fill="white" fill-opacity="0.85" style="fill:white;fill-opacity:0.85;"/>
</g>
<defs>
<clipPath id="clip0_1656_310">
<rect width="20" height="20" fill="white" style="fill:white;fill-opacity:1;"/>
</clipPath>
</defs>
</svg>
