<?xml version="1.0" encoding="UTF-8"?>
<svg version="1.1" xmlns="http://www.w3.org/2000/svg" xmlns:xlink="http://www.w3.org/1999/xlink" viewBox="0 0 17.166 9.90283">
 <g>
  <rect height="9.90283" opacity="0" width="17.166" x="0" y="0"/>
  <path d="M4.11719 9.88623L12.7168 9.88623C13.0903 9.88623 13.3892 9.5957 13.3892 9.22217C13.3892 8.84863 13.0903 8.5498 12.7168 8.5498L4.11719 8.5498C3.74365 8.5498 3.45312 8.84863 3.45312 9.22217C3.45312 9.5957 3.74365 9.88623 4.11719 9.88623Z" fill="currentColor"/>
  <path d="M2.41553 5.61133L14.4268 5.61133C14.8003 5.61133 15.0908 5.3208 15.0908 4.94727C15.0908 4.57373 14.8003 4.2749 14.4268 4.2749L2.41553 4.2749C2.04199 4.2749 1.74316 4.57373 1.74316 4.94727C1.74316 5.3208 2.04199 5.61133 2.41553 5.61133Z" fill="currentColor"/>
  <path d="M0.664062 1.33643L16.1284 1.33643C16.502 1.33643 16.7925 1.0459 16.7925 0.672363C16.7925 0.298828 16.502 0 16.1284 0L0.664062 0C0.290527 0 0 0.298828 0 0.672363C0 1.0459 0.290527 1.33643 0.664062 1.33643Z" fill="currentColor"/>
 </g>
</svg>
