<svg xmlns="http://www.w3.org/2000/svg" viewBox="0 0 22.158 17.236"><g fill="currentColor"><path d="M18.74 15.322c.362.244.81.157 1.075-.215 1.25-1.718 1.982-4.082 1.982-6.494s-.723-4.795-1.983-6.494c-.263-.371-.712-.459-1.074-.215-.361.244-.42.703-.136 1.104 1.064 1.504 1.68 3.525 1.68 5.605s-.636 4.082-1.68 5.606c-.274.4-.225.86.136 1.103M15.127 12.773c.322.225.781.157 1.045-.224.752-.986 1.201-2.442 1.201-3.936s-.45-2.94-1.201-3.935c-.264-.381-.723-.46-1.045-.225-.4.274-.459.762-.156 1.162.566.781.888 1.865.888 2.998s-.332 2.207-.888 2.998c-.293.41-.244.88.156 1.162M10.527 17.236c.645 0 1.104-.459 1.104-1.093V1.163c0-.636-.46-1.153-1.123-1.153-.46 0-.762.205-1.26.674L5.078 4.59a.34.34 0 0 1-.244.088H2.041C.713 4.678 0 5.41 0 6.816v3.633c0 1.416.713 2.139 2.041 2.139h2.793a.34.34 0 0 1 .244.088l4.17 3.945c.44.43.82.615 1.28.615"/></g></svg>