<svg xmlns="http://www.w3.org/2000/svg" viewBox="0 0 20.574 21.997"><g fill="currentColor"><path d="M14.746 18.846c-.128.462-.532.77-1.06.77-.45 0-.83-.185-1.28-.614l-4.16-3.946a.36.36 0 0 0-.244-.088H5.199c-1.318 0-2.041-.722-2.041-2.138V9.197c0-.636.148-1.134.432-1.487Zm.043-15.303v9.993L8.23 6.982l.015-.012 4.16-3.906c.498-.479.81-.674 1.26-.674.664 0 1.123.518 1.123 1.152M18.158 20.642a.754.754 0 0 0 1.064 0 .763.763 0 0 0 0-1.064L2.494 2.858a.766.766 0 0 0-1.074 0 .773.773 0 0 0 0 1.065Z"/></g></svg>