<svg viewBox="0 0 20 20" fill="currentColor" xmlns="http://www.w3.org/2000/svg">
<path d="M4.13135 18.0642C4.47168 18.3299 4.90332 18.2386 5.41797 17.865L9.80909 14.636L14.2085 17.865C14.7231 18.2386 15.1465 18.3299 15.4951 18.0642C15.8354 17.8069 15.9101 17.3836 15.7026 16.7776L13.9678 11.6145L18.4004 8.42701C18.915 8.06177 19.1225 7.67994 18.9897 7.2649C18.8569 6.86646 18.4668 6.67554 17.8276 6.67554H12.3906L10.7388 1.52075C10.5396 0.906494 10.2407 0.599365 9.80909 0.599365C9.38575 0.599365 9.08692 0.906494 8.8877 1.52075L7.23584 6.67554H1.79883C1.15967 6.67554 0.769535 6.86646 0.636723 7.2649C0.49561 7.67994 0.71143 8.06177 1.22608 8.42701L5.65869 11.6145L3.92383 16.7776C3.71631 17.3836 3.79102 17.8069 4.13135 18.0642Z"/>
</svg>
