<svg width="20" height="20" viewBox="0 0 20 20" fill="none" xmlns="http://www.w3.org/2000/svg">
<g clip-path="url(#clip0_1656_75)">
<path d="M20.5628 1.69504H-0.562744V18.3049H20.5628V1.69504Z" fill="black" style="fill:black;fill-opacity:1;"/>
<path d="M1.57056 15.4826H18.056C19.3841 15.4826 20.1893 14.6691 20.1893 13.3493V3.82834C20.1893 2.50851 19.3841 1.69504 18.056 1.69504H1.57056C0.250733 1.69504 -0.562744 2.50851 -0.562744 3.82834V13.3493C-0.562744 14.6691 0.250733 15.4826 1.57056 15.4826ZM1.59546 14.1462C1.08081 14.1462 0.773686 13.839 0.773686 13.3327V3.84494C0.773686 3.33859 1.08081 3.03147 1.59546 3.03147H18.0311C18.5457 3.03147 18.8528 3.33859 18.8528 3.84494V13.3327C18.8528 13.839 18.5457 14.1462 18.0311 14.1462H1.59546ZM5.63794 18.2966H13.9886C14.3538 18.2966 14.6609 17.9977 14.6609 17.6242C14.6609 17.2507 14.3538 16.9518 13.9886 16.9518H5.63794C5.27271 16.9518 4.96558 17.2507 4.96558 17.6242C4.96558 17.9977 5.27271 18.2966 5.63794 18.2966Z" fill="white"  style="fill:white;"/>
</g>
<defs>
<clipPath id="clip0_1656_75">
<rect width="20" height="20" fill="white" style="fill:white;fill-opacity:1;"/>
</clipPath>
</defs>
</svg>
